<svg width="251" height="251" viewBox="0 0 251 251" fill="none" xmlns="http://www.w3.org/2000/svg">
<g clip-path="url(#clip0_15_2)">
<path d="M188.25 0H62.75C28.0941 0 0 28.0941 0 62.75V188.25C0 222.906 28.0941 251 62.75 251H188.25C222.906 251 251 222.906 251 188.25V62.75C251 28.0941 222.906 0 188.25 0Z" fill="url(#paint0_linear_15_2)"/>
<mask id="path-2-outside-1_15_2" maskUnits="userSpaceOnUse" x="66" y="49" width="119" height="145" >
<rect fill="white" x="66" y="49" width="119" height="145"/>
<path d="M184 193H153.8V131.4H97.2V193H67V50.2H97.2V106.2H153.8V50.2H184V193Z"/>
</mask>
<path d="M184 193H153.8V131.4H97.2V193H67V50.2H97.2V106.2H153.8V50.2H184V193Z" fill="white"/>
<path d="M184 193V194H185V193H184ZM153.8 193H152.8V194H153.8V193ZM153.8 131.4H154.8V130.4H153.8V131.4ZM97.2 131.4V130.4H96.2V131.4H97.2ZM97.2 193V194H98.2V193H97.2ZM67 193H66V194H67V193ZM67 50.2V49.2H66V50.2H67ZM97.2 50.2H98.2V49.2H97.2V50.2ZM97.2 106.2H96.2V107.2H97.2V106.2ZM153.8 106.2V107.2H154.8V106.2H153.8ZM153.8 50.2V49.2H152.8V50.2H153.8ZM184 50.2H185V49.2H184V50.2ZM184 192H153.8V194H184V192ZM154.8 193V131.4H152.8V193H154.8ZM153.8 130.4H97.2V132.4H153.8V130.4ZM96.2 131.4V193H98.2V131.4H96.2ZM97.2 192H67V194H97.2V192ZM68 193V50.2H66V193H68ZM67 51.2H97.2V49.2H67V51.2ZM96.2 50.2V106.2H98.2V50.2H96.2ZM97.2 107.2H153.8V105.2H97.2V107.2ZM154.8 106.2V50.2H152.8V106.2H154.8ZM153.8 51.2H184V49.2H153.8V51.2ZM183 50.2V193H185V50.2H183Z" fill="white" mask="url(#path-2-outside-1_15_2)"/>
</g>
<defs>
<linearGradient id="paint0_linear_15_2" x1="0" y1="0" x2="0.490234" y2="0" gradientUnits="userSpaceOnUse">
<stop stop-color="#10B981"/>
<stop offset="1" stop-color="#047857"/>
</linearGradient>
<clipPath id="clip0_15_2">
<rect width="251" height="251" />
</clipPath>
</defs>
</svg>
