<svg width="75" height="32" viewBox="0 0 75 32" fill="none" xmlns="http://www.w3.org/2000/svg">
<path d="M0.647056 5.55561C0.522834 3.77915 1.86223 2.23835 3.63869 2.11413L24.0377 0.68769C25.8141 0.563468 27.3549 1.90287 27.4792 3.67932L29.034 25.9148C29.1582 27.6912 27.8188 29.232 26.0424 29.3563L5.64339 30.7827C3.86693 30.9069 2.32613 29.5675 2.20191 27.7911L0.647056 5.55561Z" fill="#057958"/>
<path d="M24.8114 3.75458C24.9356 1.97813 26.4764 0.638726 28.2529 0.762947L49.6494 2.25914C51.4259 2.38336 52.7653 3.92417 52.6411 5.70062L51.0862 27.9361C50.962 29.7125 49.4212 31.0519 47.6447 30.9277L26.2482 29.4315C24.4717 29.3073 23.1323 27.7665 23.2565 25.99L24.8114 3.75458Z" fill="#E15549"/>
<path d="M40.3473 9.50236L43.8778 9.74924C44.0099 9.75847 44.1206 9.81449 44.21 9.91727C44.2993 10.0201 44.3394 10.1375 44.3301 10.2696L43.5165 21.9058C43.5072 22.0379 43.4512 22.1486 43.3484 22.238C43.2456 22.3273 43.1282 22.3674 42.9961 22.3581L39.4656 22.1113C39.3335 22.102 39.2228 22.046 39.1334 21.9432C39.0441 21.8404 39.004 21.723 39.0133 21.5909L39.2853 17.7002L36.3673 17.4961L36.0952 21.3869C36.086 21.519 36.03 21.6297 35.9272 21.719C35.8244 21.8084 35.707 21.8484 35.5749 21.8392L32.0444 21.5923C31.9123 21.5831 31.8011 21.5331 31.7109 21.4423C31.6216 21.3395 31.582 21.2161 31.592 21.072L32.4057 9.43575C32.415 9.30366 32.471 9.19294 32.5738 9.10359C32.6765 9.01424 32.794 8.97418 32.9261 8.98342L36.4566 9.23029C36.5887 9.23953 36.6994 9.29554 36.7887 9.39833C36.8781 9.50111 36.9181 9.61855 36.9089 9.75065L36.6444 13.5333L39.5625 13.7374L39.827 9.9547C39.8362 9.8226 39.8922 9.71188 39.995 9.62253C40.0978 9.53318 40.2152 9.49312 40.3473 9.50236Z" fill="white"/>
<path d="M47.2541 5.53229C47.1299 3.75584 48.4693 2.21503 50.2457 2.09081L69.6472 0.73413C71.4236 0.609908 72.9644 1.94931 73.0887 3.72576L74.6435 25.9612C74.7677 27.7377 73.4283 29.2785 71.6519 29.4027L52.2504 30.7594C50.474 30.8836 48.9332 29.5442 48.809 27.7678L47.2541 5.53229Z" fill="#482307"/>
<path d="M55.2162 9.63696L65.7717 8.89885C65.9038 8.88961 66.0212 8.92967 66.124 9.01902C66.2268 9.10837 66.2828 9.21909 66.292 9.35119L66.4948 12.2512C66.5041 12.3833 66.464 12.5008 66.3747 12.6036C66.2853 12.7063 66.1746 12.7623 66.0425 12.7716L63.0524 12.9807L63.6293 21.2305C63.6385 21.3626 63.5985 21.48 63.5091 21.5828C63.4198 21.6856 63.309 21.7416 63.1769 21.7509L59.5744 22.0028C59.4423 22.012 59.3249 21.9719 59.2221 21.8826C59.1193 21.7932 59.0633 21.6825 59.054 21.5504L58.4772 13.3006L55.4871 13.5097C55.355 13.5189 55.2375 13.4789 55.1347 13.3895C55.0319 13.3002 54.9759 13.1895 54.9667 13.0574L54.7639 10.1573C54.7547 10.0252 54.7947 9.90778 54.8841 9.80499C54.9734 9.70221 55.0842 9.6462 55.2162 9.63696Z" fill="white"/>
<mask id="path-6-outside-1_16_2" maskUnits="userSpaceOnUse" x="7.21208" y="8.94219" width="14.7135" height="14.7135" >
<rect fill="white" x="7.21208" y="8.94219" width="14.7135" height="14.7135"/>
<path d="M19.6776 10.5998L16.3928 22.2116L13.7564 22.3498L9.29183 11.1441L11.7365 11.0159L14.2334 17.6944C14.2822 17.8094 14.3522 18.0246 14.4435 18.3403C14.5449 18.6447 14.6474 18.9705 14.7511 19.3175C14.8542 19.6539 14.9278 19.9385 14.9721 20.1711C14.9917 19.9351 15.0299 19.6447 15.0866 19.3C15.1534 18.944 15.2213 18.6093 15.2903 18.2959C15.3588 17.9719 15.406 17.7505 15.4318 17.6316L17.2329 10.7279L19.6776 10.5998Z"/>
</mask>
<path d="M19.6776 10.5998L16.3928 22.2116L13.7564 22.3498L9.29183 11.1441L11.7365 11.0159L14.2334 17.6944C14.2822 17.8094 14.3522 18.0246 14.4435 18.3403C14.5449 18.6447 14.6474 18.9705 14.7511 19.3175C14.8542 19.6539 14.9278 19.9385 14.9721 20.1711C14.9917 19.9351 15.0299 19.6447 15.0866 19.3C15.1534 18.944 15.2213 18.6093 15.2903 18.2959C15.3588 17.9719 15.406 17.7505 15.4318 17.6316L17.2329 10.7279L19.6776 10.5998Z" fill="white"/>
<path d="M19.6776 10.5998L20.6398 10.872L21.02 9.52804L19.6252 9.60113L19.6776 10.5998ZM16.3928 22.2116L16.4451 23.2102L17.1601 23.1727L17.355 22.4838L16.3928 22.2116ZM13.7564 22.3498L12.8274 22.7199L13.0928 23.3859L13.8087 23.3484L13.7564 22.3498ZM9.29183 11.1441L9.23949 10.1454L7.84659 10.2184L8.36284 11.5142L9.29183 11.1441ZM11.7365 11.0159L12.6731 10.6657L12.4164 9.97893L11.6841 10.0173L11.7365 11.0159ZM14.2334 17.6944L13.2967 18.0446L13.3043 18.0649L13.3128 18.0849L14.2334 17.6944ZM14.4435 18.3403L13.4829 18.6182L13.4884 18.6374L13.4948 18.6563L14.4435 18.3403ZM14.7511 19.3175L13.7929 19.6037L13.795 19.6105L14.7511 19.3175ZM14.9721 20.1711L13.9897 20.3579L15.9686 20.2542L14.9721 20.1711ZM15.0866 19.3L14.1038 19.1155L14.1017 19.1266L14.0999 19.1377L15.0866 19.3ZM15.2903 18.2959L16.267 18.511L16.2687 18.5027L15.2903 18.2959ZM15.4318 17.6316L14.4642 17.3792L14.4589 17.3992L14.4546 17.4193L15.4318 17.6316ZM17.2329 10.7279L17.1806 9.72925L16.45 9.76754L16.2653 10.4754L17.2329 10.7279ZM18.7153 10.3276L15.4305 21.9394L17.355 22.4838L20.6398 10.872L18.7153 10.3276ZM16.3405 21.213L13.7041 21.3511L13.8087 23.3484L16.4451 23.2102L16.3405 21.213ZM14.6854 21.9796L10.2208 10.7739L8.36284 11.5142L12.8274 22.7199L14.6854 21.9796ZM9.34416 12.1427L11.7888 12.0146L11.6841 10.0173L9.23949 10.1454L9.34416 12.1427ZM10.7998 11.3661L13.2967 18.0446L15.1701 17.3442L12.6731 10.6657L10.7998 11.3661ZM13.3128 18.0849C13.3351 18.1375 13.3904 18.2986 13.4829 18.6182L15.4041 18.0624C15.314 17.7507 15.2292 17.4812 15.154 17.304L13.3128 18.0849ZM13.4948 18.6563C13.5925 18.9497 13.6919 19.2654 13.7929 19.6037L15.7093 19.0314C15.603 18.6756 15.4974 18.3398 15.3923 18.0243L13.4948 18.6563ZM13.795 19.6105C13.8919 19.927 13.9546 20.1738 13.9897 20.3579L15.9545 19.9844C15.901 19.7032 15.8164 19.3809 15.7072 19.0246L13.795 19.6105ZM15.9686 20.2542C15.9853 20.0539 16.0192 19.7918 16.0734 19.4622L14.0999 19.1377C14.0407 19.4977 13.9982 19.8163 13.9755 20.0881L15.9686 20.2542ZM16.0695 19.4844C16.1346 19.1374 16.2004 18.813 16.2669 18.511L14.3138 18.0808C14.2422 18.4056 14.1722 18.7506 14.1038 19.1155L16.0695 19.4844ZM16.2687 18.5027C16.3373 18.1784 16.3839 17.9596 16.409 17.8439L14.4546 17.4193C14.4281 17.5413 14.3804 17.7654 14.312 18.0892L16.2687 18.5027ZM16.3994 17.8841L18.2005 10.9803L16.2653 10.4754L14.4642 17.3792L16.3994 17.8841ZM17.2853 11.7265L19.7299 11.5984L19.6252 9.60113L17.1806 9.72925L17.2853 11.7265Z" fill="white" mask="url(#path-6-outside-1_16_2)"/>
</svg>
