
<svg width="126" height="293" viewBox="0 0 126 293" fill="none" xmlns="http://www.w3.org/2000/svg">
<g clip-path="url(#clip0_13_2)">
<path d="M36 -51V270H89V-51H36Z" stroke="#A2724E" stroke-width="3"/>
<path d="M0.261676 148.43C0.117154 145.673 2.23551 143.32 4.99315 143.176L117.838 137.262C120.596 137.117 122.949 139.236 123.093 141.993L124.925 176.945C125.069 179.703 122.951 182.055 120.193 182.2L7.34827 188.114C4.59063 188.258 2.23796 186.14 2.09344 183.382L0.261676 148.43Z" fill="#482307"/>
<mask id="path-3-outside-1_13_2" maskUnits="userSpaceOnUse" x="24.856" y="151.204" width="74.9976" height="24.8441" >
<rect fill="white" x="24.856" y="151.204" width="74.9976" height="24.8441"/>
<path d="M42.5294 156.017L37.6022 173.435L33.6477 173.642L26.9508 156.833L30.6178 156.641L34.3632 166.659C34.4363 166.831 34.5413 167.154 34.6783 167.628C34.8304 168.084 34.9842 168.573 35.1397 169.094C35.2943 169.598 35.4048 170.025 35.4711 170.374C35.5006 170.02 35.5579 169.584 35.643 169.067C35.7432 168.533 35.845 168.031 35.9486 167.561C36.0513 167.075 36.122 166.743 36.1607 166.565L38.8624 156.209L42.5294 156.017ZM62.7961 166.058C62.858 167.24 62.6505 168.325 62.1735 169.311C61.7116 170.281 60.968 171.073 59.9428 171.687C58.9327 172.285 57.6287 172.625 56.0309 172.709C53.762 172.828 52.0062 172.343 50.7636 171.255C49.5201 170.15 48.8485 168.648 48.7488 166.746L48.171 155.721L51.7901 155.532L52.339 166.005C52.4127 167.411 52.7522 168.387 53.3575 168.932C53.9629 169.477 54.8328 169.72 55.9672 169.66C56.7661 169.618 57.4061 169.449 57.8872 169.151C58.3683 168.854 58.7056 168.411 58.8992 167.824C59.1087 167.237 59.1904 166.503 59.1444 165.625L58.5967 155.175L62.2158 154.985L62.7961 166.058ZM80.749 171.173L70.8985 171.69L70.0017 154.577L79.8522 154.061L80.0079 157.033L73.7765 157.359L73.9737 161.122L79.7737 160.818L79.9295 163.79L74.1294 164.094L74.3606 168.504L80.592 168.178L80.749 171.173ZM91.5857 170.87C89.6923 170.969 88.0941 170.74 86.6953 170.189L86.5559 167.529C88.0568 168.195 89.7786 168.489 91.2406 168.413C93.9249 168.272 94.9986 167.206 94.9006 165.337C94.814 163.683 93.5944 162.882 90.3828 163.05L88.9687 163.124L88.8418 160.704L90.2799 160.628C93.2758 160.471 94.2271 159.364 94.143 157.758C94.0714 156.392 93.1658 155.622 91.3443 155.718C89.6666 155.806 88.5476 156.465 87.5068 157.241L85.9582 155.207C87.3914 154.122 89.0567 153.338 91.3575 153.218C94.641 153.046 97.016 154.339 97.1591 157.071C97.2785 159.348 95.8666 160.84 93.736 161.456L93.7397 161.528C96.4656 161.722 97.9777 163.061 98.0958 165.314C98.2666 168.573 95.9237 170.643 91.5857 170.87Z"/>
</mask>
<path d="M42.5294 156.017L37.6022 173.435L33.6477 173.642L26.9508 156.833L30.6178 156.641L34.3632 166.659C34.4363 166.831 34.5413 167.154 34.6783 167.628C34.8304 168.084 34.9842 168.573 35.1397 169.094C35.2943 169.598 35.4048 170.025 35.4711 170.374C35.5006 170.02 35.5579 169.584 35.643 169.067C35.7432 168.533 35.845 168.031 35.9486 167.561C36.0513 167.075 36.122 166.743 36.1607 166.565L38.8624 156.209L42.5294 156.017ZM62.7961 166.058C62.858 167.24 62.6505 168.325 62.1735 169.311C61.7116 170.281 60.968 171.073 59.9428 171.687C58.9327 172.285 57.6287 172.625 56.0309 172.709C53.762 172.828 52.0062 172.343 50.7636 171.255C49.5201 170.15 48.8485 168.648 48.7488 166.746L48.171 155.721L51.7901 155.532L52.339 166.005C52.4127 167.411 52.7522 168.387 53.3575 168.932C53.9629 169.477 54.8328 169.72 55.9672 169.66C56.7661 169.618 57.4061 169.449 57.8872 169.151C58.3683 168.854 58.7056 168.411 58.8992 167.824C59.1087 167.237 59.1904 166.503 59.1444 165.625L58.5967 155.175L62.2158 154.985L62.7961 166.058ZM80.749 171.173L70.8985 171.69L70.0017 154.577L79.8522 154.061L80.0079 157.033L73.7765 157.359L73.9737 161.122L79.7737 160.818L79.9295 163.79L74.1294 164.094L74.3606 168.504L80.592 168.178L80.749 171.173ZM91.5857 170.87C89.6923 170.969 88.0941 170.74 86.6953 170.189L86.5559 167.529C88.0568 168.195 89.7786 168.489 91.2406 168.413C93.9249 168.272 94.9986 167.206 94.9006 165.337C94.814 163.683 93.5944 162.882 90.3828 163.05L88.9687 163.124L88.8418 160.704L90.2799 160.628C93.2758 160.471 94.2271 159.364 94.143 157.758C94.0714 156.392 93.1658 155.622 91.3443 155.718C89.6666 155.806 88.5476 156.465 87.5068 157.241L85.9582 155.207C87.3914 154.122 89.0567 153.338 91.3575 153.218C94.641 153.046 97.016 154.339 97.1591 157.071C97.2785 159.348 95.8666 160.84 93.736 161.456L93.7397 161.528C96.4656 161.722 97.9777 163.061 98.0958 165.314C98.2666 168.573 95.9237 170.643 91.5857 170.87Z" fill="white"/>
<path d="M42.5294 156.017L43.4916 156.289L43.8718 154.945L42.4771 155.018L42.5294 156.017ZM37.6022 173.435L37.6546 174.433L38.3696 174.396L38.5645 173.707L37.6022 173.435ZM33.6477 173.642L32.7187 174.012L32.984 174.678L33.7 174.641L33.6477 173.642ZM26.9508 156.833L26.8984 155.835L25.5055 155.908L26.0218 157.203L26.9508 156.833ZM30.6178 156.641L31.5544 156.291L31.2976 155.604L30.5654 155.643L30.6178 156.641ZM34.3632 166.659L33.4265 167.009L33.4341 167.029L33.4426 167.049L34.3632 166.659ZM34.6783 167.628L33.7177 167.906L33.7232 167.925L33.7296 167.944L34.6783 167.628ZM35.1397 169.094L34.1814 169.38L34.1835 169.387L35.1397 169.094ZM35.4711 170.374L34.4887 170.561L36.4677 170.457L35.4711 170.374ZM35.643 169.067L34.6601 168.883L34.658 168.894L34.6562 168.905L35.643 169.067ZM35.9486 167.561L36.9252 167.776L36.927 167.768L35.9486 167.561ZM36.1607 166.565L35.1931 166.312L35.1879 166.332L35.1835 166.352L36.1607 166.565ZM38.8624 156.209L38.8101 155.21L38.0795 155.249L37.8948 155.957L38.8624 156.209ZM41.5672 155.745L36.64 173.162L38.5645 173.707L43.4916 156.289L41.5672 155.745ZM37.5499 172.436L33.5953 172.643L33.7 174.641L37.6546 174.433L37.5499 172.436ZM34.5766 173.272L27.8798 156.463L26.0218 157.203L32.7187 174.012L34.5766 173.272ZM27.0031 157.832L30.6701 157.64L30.5654 155.643L26.8984 155.835L27.0031 157.832ZM29.6811 156.991L33.4265 167.009L35.2998 166.309L31.5544 156.291L29.6811 156.991ZM33.4426 167.049C33.4892 167.159 33.5796 167.428 33.7177 167.906L35.6389 167.35C35.5031 166.88 35.3833 166.503 35.2838 166.268L33.4426 167.049ZM33.7296 167.944C33.878 168.389 34.0286 168.868 34.1815 169.38L36.0978 168.807C35.9398 168.278 35.7829 167.779 35.6271 167.312L33.7296 167.944ZM34.1835 169.387C34.3321 169.871 34.4316 170.26 34.4887 170.561L36.4535 170.187C36.3779 169.79 36.2565 169.325 36.0958 168.801L34.1835 169.387ZM36.4677 170.457C36.4942 170.139 36.5472 169.731 36.6297 169.23L34.6562 168.905C34.5687 169.437 34.5071 169.901 34.4746 170.291L36.4677 170.457ZM36.6258 169.252C36.7243 168.727 36.8241 168.235 36.9252 167.776L34.972 167.346C34.8659 167.828 34.762 168.34 34.6601 168.883L36.6258 169.252ZM36.927 167.768C37.0297 167.282 37.0999 166.952 37.1379 166.777L35.1835 166.352C35.1441 166.534 35.0728 166.869 34.9702 167.354L36.927 167.768ZM37.1283 166.817L39.83 156.462L37.8948 155.957L35.1931 166.312L37.1283 166.817ZM38.9148 157.208L42.5817 157.016L42.4771 155.018L38.8101 155.21L38.9148 157.208ZM62.1735 169.311L61.2732 168.876L61.2707 168.881L62.1735 169.311ZM59.9428 171.687L60.452 172.548L60.4569 172.545L59.9428 171.687ZM50.7636 171.255L50.0995 172.003L50.1047 172.007L50.7636 171.255ZM48.171 155.721L48.1187 154.723L47.1201 154.775L47.1724 155.774L48.171 155.721ZM51.7901 155.532L52.7887 155.479L52.7364 154.481L51.7377 154.533L51.7901 155.532ZM53.3575 168.932L52.6884 169.675L52.6884 169.675L53.3575 168.932ZM57.8872 169.151L57.3612 168.301L57.3612 168.301L57.8872 169.151ZM58.8992 167.824L57.9572 167.489L57.9532 167.5L57.9495 167.511L58.8992 167.824ZM58.5967 155.175L58.5444 154.176L57.5458 154.229L57.5981 155.227L58.5967 155.175ZM62.2158 154.985L63.2144 154.933L63.1621 153.934L62.1634 153.987L62.2158 154.985ZM61.7974 166.11C61.8513 167.138 61.671 168.053 61.2732 168.876L63.0737 169.746C63.63 168.596 63.8647 167.342 63.7947 166.006L61.7974 166.11ZM61.2707 168.881C60.9029 169.653 60.3049 170.304 59.4287 170.829L60.4569 172.545C61.6311 171.841 62.5203 170.908 63.0762 169.741L61.2707 168.881ZM59.4335 170.826C58.6035 171.318 57.4709 171.632 55.9786 171.711L56.0832 173.708C57.7865 173.619 59.2618 173.252 60.452 172.548L59.4335 170.826ZM55.9786 171.711C53.8705 171.821 52.4053 171.364 51.4224 170.503L50.1047 172.007C51.6071 173.323 53.6535 173.835 56.0832 173.708L55.9786 171.711ZM51.4276 170.507C50.4136 169.607 49.8353 168.37 49.7475 166.694L47.7502 166.798C47.8616 168.925 48.6265 170.694 50.0995 172.003L51.4276 170.507ZM49.7475 166.694L49.1697 155.669L47.1724 155.774L47.7502 166.798L49.7475 166.694ZM48.2234 156.72L51.8424 156.53L51.7377 154.533L48.1187 154.723L48.2234 156.72ZM50.7914 155.584L51.3403 166.058L53.3376 165.953L52.7887 155.479L50.7914 155.584ZM51.3403 166.058C51.4185 167.549 51.7838 168.861 52.6884 169.675L54.0267 168.189C53.7206 167.913 53.4068 167.274 53.3376 165.953L51.3403 166.058ZM52.6884 169.675C53.5579 170.458 54.7265 170.727 56.0196 170.659L55.9149 168.662C54.9391 168.713 54.3679 168.496 54.0267 168.189L52.6884 169.675ZM56.0196 170.659C56.9208 170.612 57.7423 170.417 58.4133 170.002L57.3612 168.301C57.07 168.481 56.6115 168.625 55.9149 168.662L56.0196 170.659ZM58.4133 170.002C59.1134 169.569 59.589 168.926 59.8489 168.138L57.9495 167.511C57.8223 167.897 57.6233 168.139 57.3612 168.301L58.4133 170.002ZM59.8411 168.16C60.1092 167.408 60.1933 166.533 60.143 165.572L58.1457 165.677C58.1875 166.474 58.1082 167.065 57.9572 167.489L59.8411 168.16ZM60.143 165.572L59.5954 155.123L57.5981 155.227L58.1457 165.677L60.143 165.572ZM58.6491 156.174L62.2681 155.984L62.1634 153.987L58.5444 154.176L58.6491 156.174ZM61.2171 155.038L61.7974 166.11L63.7947 166.006L63.2144 154.933L61.2171 155.038ZM80.749 171.173L80.8014 172.172L81.8 172.12L81.7476 171.121L80.749 171.173ZM70.8985 171.69L69.8999 171.742L69.9522 172.741L70.9509 172.688L70.8985 171.69ZM70.0017 154.577L69.9494 153.579L68.9507 153.631L69.0031 154.63L70.0017 154.577ZM79.8522 154.061L80.8508 154.009L80.7985 153.01L79.7999 153.062L79.8522 154.061ZM80.0079 157.033L80.0603 158.031L81.0589 157.979L81.0066 156.981L80.0079 157.033ZM73.7765 157.359L73.7242 156.361L72.7255 156.413L72.7779 157.412L73.7765 157.359ZM73.9737 161.122L72.9751 161.175L73.0274 162.173L74.026 162.121L73.9737 161.122ZM79.7737 160.818L80.7724 160.766L80.72 159.767L79.7214 159.82L79.7737 160.818ZM79.9295 163.79L79.9818 164.789L80.9805 164.737L80.9281 163.738L79.9295 163.79ZM74.1294 164.094L74.0771 163.096L73.0785 163.148L73.1308 164.147L74.1294 164.094ZM74.3606 168.504L73.3619 168.556L73.4143 169.555L74.4129 169.503L74.3606 168.504ZM80.592 168.178L81.5906 168.125L81.5383 167.127L80.5397 167.179L80.592 168.178ZM80.6967 170.175L70.8462 170.691L70.9509 172.688L80.8014 172.172L80.6967 170.175ZM71.8972 171.637L71.0003 154.525L69.0031 154.63L69.8999 171.742L71.8972 171.637ZM70.054 155.576L79.9045 155.06L79.7999 153.062L69.9494 153.579L70.054 155.576ZM78.8536 154.113L79.0093 157.085L81.0066 156.981L80.8508 154.009L78.8536 154.113ZM79.9556 156.034L73.7242 156.361L73.8288 158.358L80.0603 158.031L79.9556 156.034ZM72.7779 157.412L72.9751 161.175L74.9723 161.07L74.7751 157.307L72.7779 157.412ZM74.026 162.121L79.8261 161.817L79.7214 159.82L73.9214 160.124L74.026 162.121ZM78.7751 160.871L78.9309 163.843L80.9281 163.738L80.7724 160.766L78.7751 160.871ZM79.8771 162.792L74.0771 163.096L74.1818 165.093L79.9818 164.789L79.8771 162.792ZM73.1308 164.147L73.3619 168.556L75.3592 168.452L75.1281 164.042L73.1308 164.147ZM74.4129 169.503L80.6443 169.176L80.5397 167.179L74.3082 167.506L74.4129 169.503ZM79.5934 168.23L79.7504 171.226L81.7476 171.121L81.5906 168.125L79.5934 168.23ZM86.6953 170.189L85.6967 170.241L85.7303 170.883L86.3285 171.119L86.6953 170.189ZM86.5559 167.529L86.9617 166.615L85.472 165.953L85.5573 167.581L86.5559 167.529ZM88.9687 163.124L87.9701 163.177L88.0224 164.175L89.021 164.123L88.9687 163.124ZM88.8418 160.704L88.7895 159.705L87.7909 159.757L87.8432 160.756L88.8418 160.704ZM87.5068 157.241L86.7112 157.846L87.3107 158.634L88.1043 158.043L87.5068 157.241ZM85.9582 155.207L85.3548 154.41L84.555 155.015L85.1626 155.813L85.9582 155.207ZM93.736 161.456L93.4581 160.496L92.6958 160.716L92.7373 161.509L93.736 161.456ZM93.7397 161.528L92.7411 161.581L92.7873 162.463L93.6689 162.526L93.7397 161.528ZM91.5333 169.871C89.7509 169.965 88.3008 169.747 87.0621 169.259L86.3285 171.119C87.8874 171.734 89.6336 171.974 91.638 171.869L91.5333 169.871ZM87.694 170.137L87.5545 167.476L85.5573 167.581L85.6967 170.241L87.694 170.137ZM86.1501 168.443C87.796 169.173 89.6748 169.496 91.2929 169.411L91.1883 167.414C89.8823 167.482 88.3176 167.217 86.9617 166.615L86.1501 168.443ZM91.2929 169.411C92.7286 169.336 93.9347 169.009 94.7724 168.276C95.6583 167.501 95.9593 166.43 95.8993 165.284L93.902 165.389C93.9399 166.113 93.7531 166.51 93.4555 166.77C93.1098 167.073 92.4369 167.349 91.1883 167.414L91.2929 169.411ZM95.8993 165.284C95.8715 164.754 95.7495 164.231 95.4751 163.757C95.1966 163.276 94.7927 162.902 94.2875 162.63C93.321 162.109 91.9834 161.965 90.3304 162.051L90.4351 164.049C91.9937 163.967 92.8718 164.139 93.3396 164.391C93.5516 164.505 93.6695 164.63 93.7445 164.759C93.8235 164.896 93.8865 165.093 93.902 165.389L95.8993 165.284ZM90.3304 162.051L88.9164 162.126L89.021 164.123L90.4351 164.049L90.3304 162.051ZM89.9673 163.072L89.8405 160.651L87.8432 160.756L87.9701 163.177L89.9673 163.072ZM88.8942 161.702L90.3322 161.627L90.2275 159.63L88.7895 159.705L88.8942 161.702ZM90.3322 161.627C91.9132 161.544 93.1575 161.206 94.0033 160.507C94.9103 159.758 95.1956 158.736 95.1416 157.706L93.1443 157.81C93.1745 158.385 93.0262 158.72 92.7295 158.965C92.3717 159.261 91.6424 159.555 90.2275 159.63L90.3322 161.627ZM95.1416 157.706C95.0943 156.803 94.7551 155.963 94.0042 155.393C93.2829 154.846 92.3326 154.665 91.292 154.719L91.3967 156.716C92.1775 156.675 92.5907 156.831 92.7955 156.987C92.9706 157.119 93.1201 157.347 93.1443 157.81L95.1416 157.706ZM91.292 154.719C89.3328 154.822 88.0235 155.609 86.9093 156.439L88.1043 158.043C89.0718 157.322 90.0005 156.79 91.3967 156.716L91.292 154.719ZM88.3024 156.635L86.7538 154.601L85.1626 155.813L86.7112 157.846L88.3024 156.635ZM86.5616 156.004C87.8632 155.019 89.3408 154.325 91.4098 154.216L91.3052 152.219C88.7725 152.352 86.9197 153.225 85.3548 154.41L86.5616 156.004ZM91.4098 154.216C92.9272 154.137 94.1142 154.405 94.9032 154.902C95.6484 155.371 96.1058 156.08 96.1605 157.124L98.1578 157.019C98.0693 155.33 97.2677 154.027 95.9687 153.209C94.7136 152.419 93.0713 152.126 91.3052 152.219L91.4098 154.216ZM96.1605 157.124C96.2079 158.029 95.9548 158.722 95.519 159.251C95.0719 159.795 94.3786 160.23 93.4581 160.496L94.0138 162.417C95.2239 162.067 96.3019 161.448 97.0635 160.522C97.8365 159.582 98.2297 158.391 98.1578 157.019L96.1605 157.124ZM92.7373 161.509L92.7411 161.581L94.7384 161.476L94.7346 161.404L92.7373 161.509ZM93.6689 162.526C94.893 162.613 95.7189 162.949 96.238 163.402C96.7374 163.838 97.05 164.467 97.0972 165.366L99.0944 165.261C99.0235 163.908 98.521 162.74 97.5534 161.895C96.6054 161.068 95.3123 160.638 93.8106 160.531L93.6689 162.526ZM97.0972 165.366C97.1681 166.72 96.7271 167.741 95.8789 168.471C94.9973 169.23 93.5706 169.764 91.5333 169.871L91.638 171.869C93.9388 171.748 95.8525 171.134 97.1842 169.986C98.5493 168.811 99.1943 167.167 99.0944 165.261L97.0972 165.366Z" fill="white" mask="url(#path-3-outside-1_13_2)"/>
<path d="M21.7527 198.872C21.858 196.113 24.1804 193.961 26.9398 194.066L99.8867 196.85C102.646 196.956 104.798 199.278 104.692 202.037L103.434 235.013C103.329 237.773 101.006 239.924 98.2468 239.819L25.2999 237.035C22.5405 236.93 20.3889 234.607 20.4942 231.848L21.7527 198.872Z" fill="#E15549"/>
<path d="M45.6031 206.187L51.0871 206.396C51.2923 206.404 51.4667 206.485 51.6102 206.64C51.7537 206.795 51.8216 206.975 51.8137 207.181L51.1239 225.255C51.1161 225.461 51.0347 225.635 50.8798 225.778C50.7249 225.922 50.5448 225.99 50.3396 225.982L44.8556 225.773C44.6505 225.765 44.4761 225.683 44.3326 225.529C44.189 225.374 44.1212 225.194 44.129 224.988L44.3597 218.945L39.827 218.772L39.5963 224.815C39.5885 225.021 39.5071 225.195 39.3522 225.338C39.1973 225.482 39.0172 225.55 38.812 225.542L33.328 225.333C33.1228 225.325 32.9481 225.253 32.8039 225.117C32.6604 224.962 32.5929 224.772 32.6014 224.548L33.2912 206.474C33.2991 206.268 33.3804 206.094 33.5354 205.951C33.6903 205.807 33.8703 205.739 34.0755 205.747L39.5595 205.956C39.7647 205.964 39.9391 206.045 40.0826 206.2C40.2261 206.355 40.294 206.535 40.2861 206.741L40.0619 212.616L44.5946 212.789L44.8188 206.914C44.8267 206.708 44.908 206.534 45.063 206.39C45.2179 206.247 45.3979 206.179 45.6031 206.187ZM57.3979 208.43C59.1667 207.116 61.4594 206.512 64.276 206.619C67.0926 206.727 69.3229 207.512 70.967 208.976C72.6304 210.422 73.414 212.404 73.3179 214.922L73.1513 219.287C73.0538 221.843 72.1307 223.759 70.382 225.038C68.6527 226.298 66.3611 226.874 63.5072 226.765C60.6532 226.656 58.4028 225.907 56.7559 224.518C55.1284 223.111 54.3634 221.129 54.461 218.574L54.6275 214.209C54.7244 211.672 55.6478 209.746 57.3979 208.43ZM62.2258 220.691C62.5847 221.079 63.0812 221.284 63.7154 221.309C64.3496 221.333 64.8603 221.166 65.2476 220.807C65.6349 220.448 65.8432 219.886 65.8724 219.121L66.0518 214.421C66.0802 213.675 65.9151 213.108 65.5562 212.721C65.1981 212.315 64.702 212.1 64.0678 212.075C63.4336 212.051 62.9225 212.228 62.5344 212.605C62.1471 212.964 61.9393 213.517 61.9108 214.263L61.7314 218.963C61.7022 219.728 61.867 220.304 62.2258 220.691ZM76.4592 207.365L92.8553 207.99C93.0604 207.998 93.2348 208.08 93.3783 208.234C93.5219 208.389 93.5897 208.569 93.5819 208.775L93.41 213.279C93.4021 213.484 93.3207 213.659 93.1658 213.802C93.0109 213.946 92.8309 214.014 92.6257 214.006L87.9811 213.829L87.492 226.643C87.4842 226.849 87.4028 227.023 87.2479 227.166C87.0929 227.31 86.9129 227.378 86.7077 227.37L81.1118 227.156C80.9066 227.149 80.7322 227.067 80.5887 226.912C80.4452 226.757 80.3773 226.577 80.3852 226.372L80.8742 213.557L76.2296 213.38C76.0244 213.372 75.8501 213.291 75.7065 213.136C75.563 212.981 75.4952 212.801 75.503 212.596L75.6749 208.091C75.6827 207.886 75.7641 207.712 75.919 207.568C76.074 207.425 76.254 207.357 76.4592 207.365Z" fill="white"/>
<path d="M0.797225 252.656C0.749031 249.895 2.9482 247.617 5.7092 247.569L118.692 245.597C121.453 245.549 123.73 247.748 123.778 250.509L124.389 285.504C124.438 288.265 122.238 290.542 119.477 290.59L6.49456 292.562C3.73356 292.61 1.45625 290.411 1.40806 287.65L0.797225 252.656Z" fill="#482307"/>
<path d="M12.7237 259.849L29.1292 259.562C29.3345 259.559 29.5131 259.63 29.6651 259.777C29.817 259.924 29.8947 260.1 29.8983 260.305L29.977 264.812C29.9806 265.017 29.909 265.196 29.7623 265.348C29.6156 265.5 29.4396 265.578 29.2343 265.581L24.587 265.662L24.8108 278.484C24.8144 278.69 24.7428 278.868 24.5961 279.02C24.4494 279.172 24.2734 279.25 24.0681 279.254L18.469 279.351C18.2637 279.355 18.0851 279.283 17.9331 279.137C17.7812 278.99 17.7035 278.814 17.6999 278.609L17.4761 265.787L12.8288 265.868C12.6235 265.871 12.4449 265.8 12.293 265.653C12.141 265.506 12.0633 265.33 12.0597 265.125L11.981 260.618C11.9774 260.412 12.049 260.234 12.1957 260.082C12.3424 259.93 12.5184 259.852 12.7237 259.849ZM34.5691 261.26C36.2621 259.848 38.5177 259.118 41.3359 259.069C44.1542 259.02 46.4247 259.68 48.1476 261.051C49.8887 262.402 50.7813 264.337 50.8253 266.857L50.9015 271.224C50.9462 273.781 50.131 275.746 48.4561 277.12C46.7994 278.474 44.5433 279.176 41.6878 279.226C38.8322 279.276 36.5437 278.653 34.8221 277.358C33.1189 276.043 32.245 274.107 32.2004 271.55L32.1241 267.183C32.0798 264.645 32.8948 262.67 34.5691 261.26ZM40.071 273.233C40.4507 273.6 40.9579 273.778 41.5925 273.767C42.2271 273.756 42.7277 273.56 43.0945 273.181C43.4613 272.801 43.638 272.228 43.6246 271.463L43.5425 266.76C43.5295 266.013 43.3331 265.457 42.9533 265.09C42.5731 264.704 42.0658 264.517 41.4312 264.528C40.7967 264.539 40.2962 264.744 39.9297 265.143C39.563 265.522 39.3861 266.086 39.3991 266.832L39.4812 271.535C39.4946 272.301 39.6912 272.867 40.071 273.233ZM59.8968 259.025L65.9718 258.919C66.6437 258.907 67.069 259.208 67.2478 259.821L73.8026 277.573C73.8222 277.629 73.8332 277.722 73.8355 277.853C73.8374 277.965 73.7742 278.087 73.6458 278.22C73.5358 278.334 73.3968 278.392 73.2288 278.395L68.0496 278.486C67.4897 278.496 67.1217 278.269 66.9456 277.805L66.2414 275.969L60.2223 276.074L59.5827 277.934C59.4229 278.403 59.063 278.643 58.5031 278.652L53.3239 278.743C53.1559 278.746 53.0056 278.692 52.873 278.583C52.7587 278.454 52.7006 278.334 52.6987 278.222C52.6964 278.091 52.7041 277.998 52.7218 277.941L58.6531 259.971C58.8103 259.352 59.2249 259.037 59.8968 259.025ZM61.5548 270.59L64.7184 270.535L63.0317 265.355L61.5548 270.59ZM75.3503 264.916C75.3171 263.013 76.0739 261.45 77.6208 260.228C79.1864 259.006 81.2477 258.372 83.8046 258.328C86.3802 258.283 88.4908 258.871 90.1364 260.094C91.8006 261.315 92.6446 262.607 92.6684 263.97C92.6713 264.138 92.6086 264.288 92.4803 264.421C92.3702 264.535 92.2406 264.594 92.0913 264.596L86.4921 264.694C86.0628 264.701 85.6681 264.55 85.308 264.238C84.9478 263.927 84.4691 263.777 83.8719 263.787C82.976 263.803 82.5327 264.072 82.5418 264.595C82.5467 264.875 82.7654 265.104 83.1979 265.283C83.6491 265.462 84.4732 265.616 85.6703 265.744C88.4574 266.05 90.4472 266.669 91.6396 267.6C92.8504 268.513 93.4726 269.93 93.5061 271.853C93.5393 273.756 92.6893 275.33 90.9561 276.574C89.2412 277.799 86.9747 278.436 84.1564 278.485C81.3382 278.534 79.1164 277.994 77.4912 276.865C75.8659 275.736 75.0387 274.341 75.0097 272.679C75.0068 272.511 75.0603 272.371 75.1704 272.257C75.2987 272.124 75.4469 272.056 75.6149 272.053L80.9341 271.96C81.326 271.953 81.7585 272.132 82.2317 272.497C82.7234 272.862 83.3893 273.037 84.2291 273.023C85.6289 272.998 86.3242 272.725 86.3151 272.202C86.3093 271.866 86.0529 271.619 85.546 271.459C85.0389 271.282 84.0837 271.112 82.6807 270.949C77.8544 270.399 75.4109 268.388 75.3503 264.916ZM95.6994 258.4L112.105 258.114C112.31 258.11 112.489 258.182 112.641 258.329C112.793 258.475 112.87 258.651 112.874 258.857L112.953 263.364C112.956 263.569 112.885 263.748 112.738 263.9C112.591 264.052 112.415 264.129 112.21 264.133L107.563 264.214L107.786 277.036C107.79 277.241 107.718 277.42 107.572 277.572C107.425 277.724 107.249 277.802 107.044 277.805L101.445 277.903C101.239 277.906 101.061 277.835 100.909 277.688C100.757 277.542 100.679 277.366 100.676 277.16L100.452 264.338L95.8044 264.419C95.5991 264.423 95.4205 264.351 95.2686 264.205C95.1167 264.058 95.0389 263.882 95.0353 263.677L94.9567 259.169C94.9531 258.964 95.0246 258.785 95.1713 258.633C95.3181 258.482 95.4941 258.404 95.6994 258.4Z" fill="white"/>
</g>
<defs>
<clipPath id="clip0_13_2">
<rect width="126" height="293" fill="white"/>
</clipPath>
</defs>
</svg>
